<?xml version="1.0" standalone="no"?>
<!DOCTYPE svg PUBLIC "-//W3C//DTD SVG 20010904//EN"
 "http://www.w3.org/TR/2001/REC-SVG-20010904/DTD/svg10.dtd">
<svg version="1.0" xmlns="http://www.w3.org/2000/svg"
 width="256.000000pt" height="256.000000pt" viewBox="0 0 256.000000 256.000000"
 preserveAspectRatio="xMidYMid meet">
<metadata>
Created by potrace 1.11, written by Peter Selinger 2001-2013
</metadata>
<g transform="translate(0.000000,256.000000) scale(0.100000,-0.100000)"
fill="#000000" stroke="none">
<path d="M1697 2544 c-1 -1 -31 -5 -67 -8 -70 -7 -216 -53 -277 -87 -188 -105
-326 -269 -387 -459 -31 -97 -37 -134 -41 -255 l-3 -100 -54 -1 c-165 -3 -312
-35 -428 -94 -213 -107 -374 -324 -424 -570 -16 -82 -12 -252 9 -332 40 -157
100 -262 215 -378 113 -112 235 -182 382 -218 89 -23 136 -24 1016 -24 811 -1
885 1 900 16 16 15 17 88 16 889 0 831 -3 936 -22 1017 -13 52 -62 171 -83
202 -11 14 -19 30 -19 36 0 20 -165 184 -228 225 -116 77 -236 122 -349 132
-77 7 -153 12 -156 9z m187 -464 c87 -33 173 -123 205 -213 27 -78 33 -213 9
-228 -7 -5 -167 -9 -355 -9 -296 0 -344 2 -357 16 -20 19 -19 128 2 199 31
108 129 207 244 245 70 24 174 20 252 -10z m-967 -902 c12 -21 10 -688 -3
-706 -8 -11 -28 -14 -83 -13 -173 4 -294 83 -362 236 -34 75 -32 191 3 267 50
107 130 182 231 213 56 18 203 19 214 3z m1182 3 c18 -12 20 -696 2 -714 -14
-14 -685 -19 -713 -5 -17 8 -18 35 -18 356 0 257 3 351 12 360 14 14 694 17
717 3z"/>
</g>
</svg>
